# Created by FreeCAD <http://www.freecad.org>
v -5.000000 -41.000000 18.000000
v -5.000000 -41.000000 19.500000
v -5.000000 62.200001 18.000000
v -5.000000 62.200001 19.500000
v 147.199997 -41.000000 18.000000
v 147.199997 -41.000000 19.500000
v -4.000000 61.200001 19.500000
v -4.000000 -40.000000 19.500000
v 146.199997 -40.000000 19.500000
v 146.199997 61.200001 19.500000
v 147.199997 62.200001 19.500000
v 147.199997 62.200001 18.000000
v -4.000000 61.200001 18.000000
v -4.000000 -40.000000 18.000000
v 146.199997 -40.000000 18.000000
v 146.199997 61.200001 18.000000
vn -1.000000 0.000000 0.000000
vn -1.000000 0.000000 0.000000
vn 0.000000 -1.000000 0.000000
vn 0.000000 -1.000000 0.000000
vn 0.000000 0.000000 1.000000
vn 0.000000 0.000000 1.000000
vn 0.000000 0.000000 1.000000
vn 0.000000 0.000000 1.000000
vn 0.000000 0.000000 1.000000
vn 0.000000 0.000000 1.000000
vn 0.000000 0.000000 1.000000
vn 0.000000 0.000000 1.000000
vn 0.000000 1.000000 0.000000
vn 0.000000 1.000000 0.000000
vn 0.000000 0.000000 -1.000000
vn 0.000000 0.000000 -1.000000
vn -0.000000 -0.000000 -1.000000
vn 0.000000 -0.000000 -1.000000
vn 0.000000 0.000000 -1.000000
vn 0.000000 0.000000 -1.000000
vn 0.000000 0.000000 -1.000000
vn 0.000000 0.000000 -1.000000
vn 1.000000 0.000000 0.000000
vn 1.000000 -0.000000 0.000000
vn 0.000000 1.000000 0.000000
vn 0.000000 1.000000 0.000000
vn -1.000000 0.000000 0.000000
vn -1.000000 0.000000 0.000000
vn 0.000000 -1.000000 0.000000
vn 0.000000 -1.000000 0.000000
vn 1.000000 0.000000 0.000000
vn 1.000000 -0.000000 0.000000
f 1//1 2//1 3//1
f 3//2 2//2 4//2
f 5//3 6//3 1//3
f 1//4 6//4 2//4
f 7//5 4//5 2//5
f 7//6 2//6 8//6
f 6//7 9//7 8//7
f 6//8 8//8 2//8
f 10//9 9//9 6//9
f 11//10 10//10 6//10
f 11//11 4//11 7//11
f 11//12 7//12 10//12
f 11//13 12//13 3//13
f 11//14 3//14 4//14
f 3//15 13//15 1//15
f 1//16 13//16 14//16
f 15//17 5//17 14//17
f 14//18 5//18 1//18
f 15//19 16//19 5//19
f 16//20 12//20 5//20
f 3//21 12//21 13//21
f 13//22 12//22 16//22
f 6//23 5//23 12//23
f 6//24 12//24 11//24
f 9//25 15//25 14//25
f 9//26 14//26 8//26
f 15//27 9//27 16//27
f 16//28 9//28 10//28
f 16//29 10//29 13//29
f 13//30 10//30 7//30
f 8//31 14//31 13//31
f 8//32 13//32 7//32
